<svg xmlns="http://www.w3.org/2000/svg" viewBox="0 0 512 512" style="height: 512px; width: 512px;"><g class="" transform="translate(0,0)" style="touch-action: none;"><g><path d="M441.6 47.65C435.8 47.65 429.5 48.3 422.7 49.57C401.8 53.44 376.6 63.13 349.5 77.1C343.8 80.03 338 83.14 332.2 86.43C343.6 89.93 355.1 93.69 364.9 98.08C373.7 101.9 381.3 106.2 386.8 112.5C392.3 118.9 394.5 129.2 390.3 137.8C387.5 143.5 382.9 144.8 378.9 145.9C374.8 146.9 370.3 147.4 365.2 147.6C354.9 148.1 341.9 147.4 327.7 146C304.5 143.8 278.1 139.8 256.4 135.5C242.8 145.3 229.2 155.6 215.7 166.3C227 169.9 237.6 174.6 246.8 179.9C257.2 185.9 265.7 192.4 271.3 199.8C274.1 203.6 276.3 207.7 276.8 212.6C277.3 217.6 275.4 223.2 271.7 226.9C263.6 235.2 252.3 235.5 239.4 235.3C226.6 235.2 211.7 233.2 196.9 230.6C180.4 227.6 164.6 224 152.2 220.8C135.9 235.7 120.6 250.7 106.4 265.3C116 269 126.4 273.8 135.7 278.9C143.7 283.3 150.8 287.8 156.1 292.9C158.8 295.4 161.1 298 162.7 301.6C164.3 305.2 164.7 310.6 162.3 314.8L162.3 314.9C159.6 319.4 155.8 321.1 152.1 322.5C148.5 323.9 144.4 324.9 139.8 325.6C130.6 327.1 119.6 327.8 108 328C88.45 328.3 68.19 327.1 54.42 324.9C51.09 329.3 47.95 333.5 45.05 337.7C31.04 357.8 22.45 375.3 20.51 386.4C19.54 392 20.17 395.5 21.32 397.6C22.46 399.7 24.23 401.3 29.06 402.6C38.24 404.9 53.87 403.1 73.17 396.3C92.47 389.5 115.4 378.3 140.2 363.8C189.8 334.8 246.8 293.1 299.3 249.2C351.8 205.3 399.8 159.2 431.5 121.6C447.3 102.8 459.1 86.15 465.1 73.67C468.1 67.42 469.6 62.25 469.9 58.96C470.1 56.18 469.8 55.28 469.2 54.6C462.7 50.33 454.3 47.96 444.1 47.68L441.6 47.68Z" class="" fill="#f5a623" fill-opacity="1"></path><path d="M311.1 98.83C299.9 105.7 288.5 113.1 277 120.9C294.1 123.9 312.8 126.5 329.5 128.1C343.2 129.4 355.6 130 364.4 129.6C368.8 129.4 372.3 129 374.2 128.5C374.8 128.3 374.7 128.3 374.9 128.2C375.4 126.7 375 126.3 373.2 124.3C370.9 121.6 365.2 117.9 357.6 114.5C345 108.9 327.5 103.8 311.1 98.83Z" class="" fill="#b57204" fill-opacity="1"></path><path d="M470.4 100.3C463.6 110.4 455.1 121.5 445.2 133.2C434.4 146 421.9 159.6 408.1 173.8C417.2 174.2 427.2 173.4 437.4 170.9C455.6 166.4 470.9 157.6 480.5 147.9C490 138.1 493.5 128.2 491.4 119.7C489.4 111.5 482.3 104.5 470.4 100.3Z" class="" fill="#d0021b" fill-opacity="1"></path><path d="M198.3 180.5C191.3 186.3 184.4 192.1 177.6 198C174.5 200.7 171.4 203.4 168.3 206.2C178.1 208.5 189.1 210.9 200.1 212.9C214.3 215.4 228.5 217.2 239.7 217.3C250.8 217.5 258.5 214.6 258.9 214.3C258.8 213.9 258.4 212.6 256.9 210.6C253.9 206.5 246.9 200.7 237.8 195.6C226.7 189.2 212.4 183.6 198.3 180.5Z" class="" fill="#b57204" fill-opacity="1"></path><path d="M391.9 189.9C372 209.4 349.9 229.6 326.7 249.5C332 250.3 337.6 250.8 343.4 250.8C362.2 250.8 379.1 245.9 390.7 238.7C402.3 231.5 408 222.7 408 213.9C408 205.4 402.7 197 391.9 189.9Z" class="" fill="#d0021b" fill-opacity="1"></path><path d="M479.5 190.6C477 193.1 474.4 195.7 471.5 198.1C411.1 249.2 338.1 315.3 264.6 367.3C192.2 418.6 119.3 457 55.08 451.7C62.06 456.8 69.44 459.9 76.85 461.8C95.79 466.8 115.4 463.3 126.6 460.1C207.4 436.8 293.4 379.7 359.7 325.5C392.8 298.4 421 272.1 441.2 251.2C451.3 240.8 459.4 231.8 465.1 224.8C470.8 217.9 474 211.6 473.8 212.5C476.1 204.7 478 197.4 479.5 190.6Z" class="" fill="#f5a623" fill-opacity="1"></path><path d="M309.4 264.1C286.5 283.3 262.8 302 239.1 319.5C244.5 320.2 250.1 320.6 255.9 320.6C276.1 320.6 294.3 315.9 306.7 308.9C319.1 301.9 325 293.5 325 285.7C325 278.5 320 270.8 309.4 264.1Z" class="" fill="#d0021b" fill-opacity="1"></path><path d="M92.8 279.7C83.74 289.5 75.33 299 67.66 308.3C79.17 309.4 94.01 310.1 107.8 310C118.8 309.8 129.2 309.1 136.9 307.9C139.9 307.4 142.1 306.7 143.9 306.2C143.8 306 143.9 306.1 143.8 306C140.5 302.8 134.3 298.6 127 294.6C116.3 288.7 103.1 283.1 92.8 279.7Z" class="" fill="#b57204" fill-opacity="1"></path><path d="M213.5 337.9C191.5 353.3 169.9 367.3 149.3 379.3C143 383 136.9 386.4 130.8 389.7C138.9 391.5 147.9 392.5 157.2 392.5C177.4 392.5 195.6 387.8 208 380.8C220.4 373.8 226.3 365.4 226.3 357.6C226.3 351.1 222.1 344.1 213.5 337.9Z" class="" fill="#d0021b" fill-opacity="1"></path><path d="M103.6 403.3C95.06 407.2 86.89 410.6 79.12 413.3C59.68 420.1 42.6 423.5 27.98 420.7C28.98 421.7 30.07 422.6 31.27 423.5C38.71 429.1 49.6 432.8 61.81 432.8C74.02 432.8 84.91 429.1 92.35 423.5C99.77 418 103.6 411.2 103.6 404Z" class="selected" fill="#d0021b" fill-opacity="1"></path></g></g></svg>